<mxfile host="app.diagrams.net" agent="Mozilla/5.0 (Macintosh; Intel Mac OS X 10_15_7) AppleWebKit/537.36 (KHTML, like Gecko) Chrome/131.0.0.0 Safari/537.36" version="24.8.6">
  <diagram name="Page-1" id="m7iHzihGbG0gObyQ4w-n">
    <mxGraphModel dx="984" dy="565" grid="1" gridSize="10" guides="1" tooltips="1" connect="1" arrows="1" fold="1" page="1" pageScale="1" pageWidth="827" pageHeight="1169" math="0" shadow="0">
      <root>
        <mxCell id="0" />
        <mxCell id="1" parent="0" />
        <mxCell id="3XhUzOHjpU7zTOnsgZtM-4" value="Course UI components&lt;div&gt;&lt;ol&gt;&lt;li&gt;Course listings&lt;/li&gt;&lt;li&gt;Course dashboard&lt;/li&gt;&lt;li&gt;Checkout&lt;/li&gt;&lt;li&gt;Login&lt;/li&gt;&lt;/ol&gt;&lt;/div&gt;" style="text;html=1;align=left;verticalAlign=middle;resizable=0;points=[];autosize=1;strokeColor=#1FFFF8;fillColor=none;" vertex="1" parent="1">
          <mxGeometry x="30" y="28" width="160" height="110" as="geometry" />
        </mxCell>
        <mxCell id="3XhUzOHjpU7zTOnsgZtM-5" value="Backend components&lt;div&gt;&lt;ol&gt;&lt;li&gt;Course Service -&amp;gt; Course DB&lt;/li&gt;&lt;li&gt;Enrolment Service -&amp;gt; Enrolment DB&lt;/li&gt;&lt;li&gt;Auth Service&lt;/li&gt;&lt;li&gt;Payment Service&lt;/li&gt;&lt;li&gt;Notification Service&lt;/li&gt;&lt;/ol&gt;&lt;/div&gt;" style="text;html=1;align=left;verticalAlign=middle;resizable=0;points=[];autosize=1;strokeColor=#1FFFF8;fillColor=none;" vertex="1" parent="1">
          <mxGeometry x="260" y="23" width="250" height="120" as="geometry" />
        </mxCell>
        <mxCell id="3XhUzOHjpU7zTOnsgZtM-14" value="Student DB" style="shape=table;startSize=30;container=1;collapsible=1;childLayout=tableLayout;fixedRows=1;rowLines=0;fontStyle=1;align=center;resizeLast=1;html=1;whiteSpace=wrap;" vertex="1" parent="1">
          <mxGeometry x="590" y="23" width="180" height="120" as="geometry" />
        </mxCell>
        <mxCell id="3XhUzOHjpU7zTOnsgZtM-15" value="" style="shape=tableRow;horizontal=0;startSize=0;swimlaneHead=0;swimlaneBody=0;fillColor=none;collapsible=0;dropTarget=0;points=[[0,0.5],[1,0.5]];portConstraint=eastwest;top=0;left=0;right=0;bottom=0;html=1;" vertex="1" parent="3XhUzOHjpU7zTOnsgZtM-14">
          <mxGeometry y="30" width="180" height="30" as="geometry" />
        </mxCell>
        <mxCell id="3XhUzOHjpU7zTOnsgZtM-16" value="PK" style="shape=partialRectangle;connectable=0;fillColor=none;top=0;left=0;bottom=0;right=0;fontStyle=1;overflow=hidden;html=1;whiteSpace=wrap;" vertex="1" parent="3XhUzOHjpU7zTOnsgZtM-15">
          <mxGeometry width="60" height="30" as="geometry">
            <mxRectangle width="60" height="30" as="alternateBounds" />
          </mxGeometry>
        </mxCell>
        <mxCell id="3XhUzOHjpU7zTOnsgZtM-17" value="Student ID" style="shape=partialRectangle;connectable=0;fillColor=none;top=0;left=0;bottom=0;right=0;align=left;spacingLeft=6;fontStyle=5;overflow=hidden;html=1;whiteSpace=wrap;" vertex="1" parent="3XhUzOHjpU7zTOnsgZtM-15">
          <mxGeometry x="60" width="120" height="30" as="geometry">
            <mxRectangle width="120" height="30" as="alternateBounds" />
          </mxGeometry>
        </mxCell>
        <mxCell id="3XhUzOHjpU7zTOnsgZtM-21" value="" style="shape=tableRow;horizontal=0;startSize=0;swimlaneHead=0;swimlaneBody=0;fillColor=none;collapsible=0;dropTarget=0;points=[[0,0.5],[1,0.5]];portConstraint=eastwest;top=0;left=0;right=0;bottom=0;html=1;" vertex="1" parent="3XhUzOHjpU7zTOnsgZtM-14">
          <mxGeometry y="60" width="180" height="30" as="geometry" />
        </mxCell>
        <mxCell id="3XhUzOHjpU7zTOnsgZtM-22" value="" style="shape=partialRectangle;connectable=0;fillColor=none;top=0;left=0;bottom=0;right=0;editable=1;overflow=hidden;html=1;whiteSpace=wrap;" vertex="1" parent="3XhUzOHjpU7zTOnsgZtM-21">
          <mxGeometry width="60" height="30" as="geometry">
            <mxRectangle width="60" height="30" as="alternateBounds" />
          </mxGeometry>
        </mxCell>
        <mxCell id="3XhUzOHjpU7zTOnsgZtM-23" value="Email ID" style="shape=partialRectangle;connectable=0;fillColor=none;top=0;left=0;bottom=0;right=0;align=left;spacingLeft=6;overflow=hidden;html=1;whiteSpace=wrap;" vertex="1" parent="3XhUzOHjpU7zTOnsgZtM-21">
          <mxGeometry x="60" width="120" height="30" as="geometry">
            <mxRectangle width="120" height="30" as="alternateBounds" />
          </mxGeometry>
        </mxCell>
        <mxCell id="3XhUzOHjpU7zTOnsgZtM-24" value="" style="shape=tableRow;horizontal=0;startSize=0;swimlaneHead=0;swimlaneBody=0;fillColor=none;collapsible=0;dropTarget=0;points=[[0,0.5],[1,0.5]];portConstraint=eastwest;top=0;left=0;right=0;bottom=0;html=1;" vertex="1" parent="3XhUzOHjpU7zTOnsgZtM-14">
          <mxGeometry y="90" width="180" height="30" as="geometry" />
        </mxCell>
        <mxCell id="3XhUzOHjpU7zTOnsgZtM-25" value="" style="shape=partialRectangle;connectable=0;fillColor=none;top=0;left=0;bottom=0;right=0;editable=1;overflow=hidden;html=1;whiteSpace=wrap;" vertex="1" parent="3XhUzOHjpU7zTOnsgZtM-24">
          <mxGeometry width="60" height="30" as="geometry">
            <mxRectangle width="60" height="30" as="alternateBounds" />
          </mxGeometry>
        </mxCell>
        <mxCell id="3XhUzOHjpU7zTOnsgZtM-26" value="Name" style="shape=partialRectangle;connectable=0;fillColor=none;top=0;left=0;bottom=0;right=0;align=left;spacingLeft=6;overflow=hidden;html=1;whiteSpace=wrap;" vertex="1" parent="3XhUzOHjpU7zTOnsgZtM-24">
          <mxGeometry x="60" width="120" height="30" as="geometry">
            <mxRectangle width="120" height="30" as="alternateBounds" />
          </mxGeometry>
        </mxCell>
      </root>
    </mxGraphModel>
  </diagram>
</mxfile>
